{"title":"Glengarry.Glen.Ross[1992]720p.HDTV.XviD.AC3- CODY","uid":5307290,"size":1523547027,"categoryP":"video","categoryS":"hd___movies","magnet":"?xt=urn:btih:b31fad2090493eaa5111ec9f3d648dfabfb5bb97&amp;dn=Glengarry.Glen.Ross%5B1992%5D720p.HDTV.XviD.AC3-+CODY&amp;tr=udp%3A%2F%2Ftracker.openbittorrent.com%3A80&amp;tr=udp%3A%2F%2Fopen.demonii.com%3A1337&amp;tr=udp%3A%2F%2Ftracker.coppersurfer.tk%3A6969&amp;tr=udp%3A%2F%2Fexodus.desync.com%3A6969","seeders":3,"leechers":0,"uploader":"CODYBOSS1969","files":5,"time":1264442670,"description":"General\nComplete name               : Glengarry.Glen.Ross[1992]720p.HDTV.XviD.AC3- CODY.avi\nFormat                           : AVI\nFormat/Info                      : Audio Video Interleave\nFile size                        : 1.42 GiB\nDuration                         : 1h 40mn\nOverall bit rate                 : 2 025 Kbps\nWriting application              : VirtualDubMod 1.5.10.2 (build 2540/release)\nWriting library                  : VirtualDubMod build 2540/release\n\nVideo\nFormat                           : MPEG-4 Visual\nFormat profile                   : Streaming Video@L1\nFormat settings, BVOP            : Yes\nFormat settings, QPel            : No\nFormat settings, GMC             : 3 warppoints\nFormat settings, Matrix          : Default\nMuxing mode                      : Packet Bitstream\nCodec ID                         : XVID\nCodec ID/Hint                    : XviD\nDuration                         : 1h 40mn\nBit rate                         : 1 632 Kbps\nWidth                            : 1 280 pixels\nHeight                           : 544 pixels\nDisplay aspect ratio             : 2.35\nFrame rate                       : 23.976 fps\nResolution                       : 24 bits\nColorimetry                      : 4:2:0\nScan type                        : Progressive\nBits/(Pixel*Frame)               : 0.098\nStream size                      : 1.14 GiB (81%)\nWriting library                  : XviD 1.2.0.dev47 (UTC 2006-11-01)\n\nAudio\nFormat                           : AC-3\nFormat/Info                      : Audio Coding 3\nCodec ID                         : 2000\nDuration                         : 1h 40mn\nBit rate mode                    : Constant\nBit rate                         : 384 Kbps\nChannel(s)                       : 2 channels\nChannel positions                : L R\nSampling rate                    : 48.0 KHz\nStream size                      : 275 MiB (19%)\nAlignment                        : Split accross interleaves\nInterleave, duration             : 42 ms (1.00 video frame)\nInterleave, preload duration     : 500 ms\n\n &lt;a href=&quot;\nhttp://www.imdb.com/title/tt0104348/&quot; rel=&quot;nofollow&quot; target=&quot;_NEW&quot;&gt;\nhttp://www.imdb.com/title/tt0104348/&lt;/a&gt;\n\n\nSubtitles included: English, Romanian\n\n\nYou won't find a better acting ensemble!\n\n\n\nDON'T FORGET TO SEED!\n\n\nHIT AND RUN IS NOT AN OPTION BECAUSE THIS IS...A TORRENT !\n","torrent":{"xt":"urn:btih:b31fad2090493eaa5111ec9f3d648dfabfb5bb97","amp;dn":"Glengarry.Glen.Ross%5B1992%5D720p.HDTV.XviD.AC3-+CODY","amp;tr":["udp%3A%2F%2Ftracker.openbittorrent.com%3A80","udp%3A%2F%2Fopen.demonii.com%3A1337","udp%3A%2F%2Ftracker.coppersurfer.tk%3A6969","udp%3A%2F%2Fexodus.desync.com%3A6969"],"infoHash":"b31fad2090493eaa5111ec9f3d648dfabfb5bb97","infoHashBuffer":{"type":"Buffer","data":[179,31,173,32,144,73,62,170,81,17,236,159,61,100,141,250,191,181,187,151]},"announce":[],"urlList":[]}}